<?xml version="1.0" encoding="UTF-8" standalone="no"?>
<!-- Created with Inkscape (http://www.inkscape.org/) -->

<svg
   xmlns:dc="http://purl.org/dc/elements/1.1/"
   xmlns:cc="http://creativecommons.org/ns#"
   xmlns:rdf="http://www.w3.org/1999/02/22-rdf-syntax-ns#"
   xmlns:svg="http://www.w3.org/2000/svg"
   xmlns="http://www.w3.org/2000/svg"
   xmlns:sodipodi="http://sodipodi.sourceforge.net/DTD/sodipodi-0.dtd"
   xmlns:inkscape="http://www.inkscape.org/namespaces/inkscape"
   width="58.864868"
   height="30.884605"
   id="svg3445"
   version="1.1"
   inkscape:version="0.48.4 r9939"
   sodipodi:docname="Nouveau document 2">
  <defs
     id="defs3447">
    <filter
       color-interpolation-filters="sRGB"
       inkscape:collect="always"
       id="filter3876-8-4">
      <feGaussianBlur
         inkscape:collect="always"
         stdDeviation="1.6326965"
         id="feGaussianBlur3878-8-5" />
    </filter>
    <filter
       color-interpolation-filters="sRGB"
       inkscape:collect="always"
       id="filter3876-8">
      <feGaussianBlur
         inkscape:collect="always"
         stdDeviation="1.6326965"
         id="feGaussianBlur3878-8" />
    </filter>
    <filter
       color-interpolation-filters="sRGB"
       inkscape:collect="always"
       id="filter3876">
      <feGaussianBlur
         inkscape:collect="always"
         stdDeviation="1.6326965"
         id="feGaussianBlur3878" />
    </filter>
  </defs>
  <sodipodi:namedview
     id="base"
     pagecolor="#ffffff"
     bordercolor="#666666"
     borderopacity="1.0"
     inkscape:pageopacity="0.0"
     inkscape:pageshadow="2"
     inkscape:zoom="5.6568543"
     inkscape:cx="24.935562"
     inkscape:cy="-3.1946886"
     inkscape:document-units="px"
     inkscape:current-layer="layer1"
     showgrid="false"
     fit-margin-top="0"
     fit-margin-left="0"
     fit-margin-right="0"
     fit-margin-bottom="0"
     inkscape:window-width="1366"
     inkscape:window-height="746"
     inkscape:window-x="-8"
     inkscape:window-y="-8"
     inkscape:window-maximized="1" />
  <metadata
     id="metadata3450">
    <rdf:RDF>
      <cc:Work
         rdf:about="">
        <dc:format>image/svg+xml</dc:format>
        <dc:type
           rdf:resource="http://purl.org/dc/dcmitype/StillImage" />
        <dc:title></dc:title>
      </cc:Work>
    </rdf:RDF>
  </metadata>
  <g
     inkscape:label="Calque 1"
     inkscape:groupmode="layer"
     id="layer1"
     transform="translate(-184.51084,-55.15735)">
    <g
       id="g3928"
       transform="matrix(0.17743173,0,0,0.17743173,27.268925,-0.66855154)">
      <g
         id="g4254"
         transform="translate(894.69884,61.01471)">
        <path
           style="opacity:0.91759685;fill:#000000;fill-opacity:1;stroke:#000000;stroke-width:3.47952747;stroke-miterlimit:4;stroke-opacity:1;stroke-dasharray:none;filter:url(#filter3876-8-4)"
           d="m 218.0727,260.04141 94.95434,0 c 0,0 -4.46375,38.47246 4,69.70053 l -94.95434,0 c -11.61675,-29.7995 -4,-69.70053 -4,-69.70053 z"
           id="rect3816-4-2-5"
           inkscape:connector-curvature="0"
           sodipodi:nodetypes="ccccc" />
        <path
           style="opacity:0.91759685;fill:#000000;fill-opacity:1;stroke:#000000;stroke-width:3.47952747;stroke-miterlimit:4;stroke-opacity:1;stroke-dasharray:none;filter:url(#filter3876-8)"
           d="m 108.30435,259.27666 94.95433,0 c 0,0 -4.46374,38.47246 4,69.70053 l -94.95433,0 c -11.61675,-29.7995 -4,-69.70053 -4,-69.70053 z"
           id="rect3816-4-2"
           inkscape:connector-curvature="0"
           sodipodi:nodetypes="ccccc" />
        <path
           style="opacity:0.91759685;fill:#000000;fill-opacity:1;stroke:#000000;stroke-width:3.47952747;stroke-miterlimit:4;stroke-opacity:1;stroke-dasharray:none;filter:url(#filter3876)"
           d="m -0.28076224,259.51192 94.95432624,0 c 0,0 -4.46374,38.47246 4,69.70053 l -94.9543262,0 c -11.61675,-29.7995 -4.00000004,-69.70053 -4.00000004,-69.70053 z"
           id="rect3816-4"
           inkscape:connector-curvature="0"
           sodipodi:nodetypes="ccccc" />
        <path
           style="fill:#0000a6;fill-opacity:1;stroke:#000000;stroke-width:3.47952747;stroke-miterlimit:4;stroke-opacity:1;stroke-dasharray:none"
           d="m -0.88121224,257.59471 94.95432624,0 c 0,0 -2.6066,39.90103 7.999996,69.70053 l -94.9543222,0 c -11.61675,-29.7995 -8.00000004,-69.70053 -8.00000004,-69.70053 z"
           id="rect3816"
           inkscape:connector-curvature="0"
           sodipodi:nodetypes="ccccc" />
        <path
           style="fill:#ffffff;fill-opacity:1;stroke:#000000;stroke-width:3.47952747;stroke-miterlimit:4;stroke-opacity:1;stroke-dasharray:none"
           d="m 108.16726,257.70355 94.95433,0 c 0,0 -2.6066,39.90103 8.00001,69.70053 l -94.95434,0 c -11.61675,-29.7995 -8,-69.70053 -8,-69.70053 z"
           id="rect3816-0"
           inkscape:connector-curvature="0"
           sodipodi:nodetypes="ccccc" />
        <path
           style="fill:#bc0018;fill-opacity:1;stroke:#000000;stroke-width:3.47952747;stroke-miterlimit:4;stroke-opacity:1;stroke-dasharray:none"
           d="m 217.63466,257.70829 94.95434,0 c 0,0 -2.6066,39.90103 8,69.70053 l -94.95434,0 c -11.61675,-29.7995 -8,-69.70053 -8,-69.70053 z"
           id="rect3816-9"
           inkscape:connector-curvature="0"
           sodipodi:nodetypes="ccccc" />
      </g>
    </g>
    <path
       inkscape:connector-curvature="0"
       id="path3512"
       style="font-size:12.26401329px;font-style:normal;font-variant:normal;font-weight:normal;font-stretch:normal;line-height:125%;letter-spacing:0px;word-spacing:0px;fill:#000000;fill-opacity:1;stroke:none;font-family:Berlin Sans FB;-inkscape-font-specification:Berlin Sans FB"
       d="m 190.68476,79.0656 c 0,0.01597 -0.006,0.0519 -0.018,0.107789 -0.1557,0.914217 -0.23355,1.702674 -0.23355,2.365374 0,0.03992 0.0499,0.936171 0.14971,2.688741 l 0.006,0.08384 c 0.004,0.115774 -0.0489,0.173661 -0.15869,0.173661 -0.10979,0 -0.27547,0.01297 -0.49703,0.03892 -0.22157,0.02595 -0.38625,0.03892 -0.49403,0.03892 -0.0759,0 -0.13374,-0.139726 -0.17366,-0.41918 -0.0399,-0.279453 -0.0778,-0.419179 -0.11378,-0.41918 -0.024,10e-7 -0.13175,0.07785 -0.32337,0.233543 -0.23554,0.191626 -0.45511,0.337341 -0.65871,0.437145 -0.31538,0.159688 -0.63077,0.239532 -0.94615,0.239532 -0.77449,0 -1.42721,-0.309395 -1.95817,-0.928185 -0.50301,-0.590843 -0.75452,-1.279495 -0.75452,-2.065959 0,-0.886263 0.2535,-1.618829 0.76051,-2.197702 0.53096,-0.602815 1.22959,-0.904225 2.0959,-0.904231 0.6108,6e-6 1.14376,0.211592 1.59887,0.634758 0.0679,0.07985 0.17366,0.195623 0.31738,0.347321 0.012,0.01198 0.0239,0.01797 0.0359,0.01797 0.0239,5e-6 0.0579,-0.125749 0.1018,-0.377262 0.0439,-0.251503 0.0998,-0.377257 0.16768,-0.377262 0.10778,5e-6 0.30939,0.02995 0.60481,0.08982 0.32736,0.07187 0.49104,0.13574 0.49104,0.191625 z m -1.52701,2.503104 c -1e-5,-0.491036 -0.14572,-0.912212 -0.43715,-1.263528 -0.3074,-0.379254 -0.70063,-0.568883 -1.17969,-0.568888 -0.47906,5e-6 -0.87828,0.187638 -1.19766,0.562899 -0.3074,0.359302 -0.4611,0.782473 -0.46109,1.269517 -1e-5,0.483058 0.15369,0.902238 0.46109,1.257541 0.31938,0.371275 0.7186,0.556912 1.19766,0.556911 0.46708,10e-7 0.85832,-0.189628 1.17371,-0.568888 0.29541,-0.355303 0.44312,-0.77049 0.44313,-1.245564 z" />
    <path
       inkscape:connector-curvature="0"
       id="path3514"
       style="font-size:12.26401329px;font-style:normal;font-variant:normal;font-weight:normal;font-stretch:normal;line-height:125%;letter-spacing:0px;word-spacing:0px;fill:#000000;fill-opacity:1;stroke:none;font-family:Berlin Sans FB;-inkscape-font-specification:Berlin Sans FB"
       d="m 196.94252,78.903916 c 0,0.479069 -0.004,1.19866 -0.012,2.158778 -0.008,0.960125 -0.012,1.679717 -0.012,2.158778 -1e-5,0.950142 -0.20361,1.650771 -0.61081,2.101889 -0.42716,0.479062 -1.10983,0.718593 -2.04799,0.718594 -0.90623,-10e-7 -1.6388,-0.171665 -2.1977,-0.514992 -0.0878,-0.05589 -0.13174,-0.103798 -0.13174,-0.143719 0,0.04391 0.0599,-0.251509 0.17965,-0.886267 0.012,-0.06787 0.0399,-0.101801 0.0838,-0.101801 0.02,0 0.0459,0.01 0.0778,0.02994 0.59883,0.343328 1.19965,0.514992 1.80247,0.514992 0.39523,0 0.72259,-0.08783 0.98208,-0.263484 0.29941,-0.19961 0.44912,-0.489043 0.44912,-0.868302 0,-0.08383 -0.008,-0.271468 -0.0239,-0.562899 -0.44314,0.538947 -1.00603,0.808419 -1.6887,0.808419 -0.73855,0 -1.34537,-0.26548 -1.82044,-0.796442 -0.45511,-0.510999 -0.68266,-1.139769 -0.68266,-1.886311 0,-0.758513 0.21957,-1.403251 0.65871,-1.934217 0.46709,-0.566886 1.0739,-0.850331 1.82044,-0.850337 0.65871,6e-6 1.18169,0.25351 1.56893,0.760513 0.0639,0.08384 0.10978,0.125759 0.13773,0.125754 0.0319,5e-6 0.0479,-0.03592 0.0479,-0.107789 -1e-5,-0.05189 -0.004,-0.134732 -0.012,-0.248514 -0.008,-0.113772 -0.012,-0.198606 -0.012,-0.254503 -1e-5,-0.239525 0.0239,-0.359291 0.0719,-0.359297 0.0399,6e-6 0.25549,0.03693 0.64673,0.110783 0.39123,0.07386 0.60481,0.118774 0.64075,0.134737 0.0559,0.01997 0.0838,0.07187 0.0838,0.155695 z m -1.43719,2.467175 c 0,-0.447122 -0.12176,-0.82638 -0.36528,-1.137775 -0.26748,-0.339331 -0.61879,-0.508999 -1.05394,-0.509004 -0.43116,5e-6 -0.78048,0.171669 -1.04795,0.514993 -0.24353,0.311394 -0.36529,0.688656 -0.36529,1.131786 0,0.435152 0.12376,0.810417 0.37128,1.125798 0.26747,0.34333 0.61479,0.514994 1.04196,0.514993 0.42317,10e-7 0.77049,-0.171663 1.04196,-0.514993 0.25151,-0.315381 0.37726,-0.690646 0.37726,-1.125798 z" />
    <path
       inkscape:connector-curvature="0"
       id="path3516"
       style="font-size:12.26401329px;font-style:normal;font-variant:normal;font-weight:normal;font-stretch:normal;line-height:125%;letter-spacing:0px;word-spacing:0px;fill:#000000;fill-opacity:1;stroke:none;font-family:Berlin Sans FB;-inkscape-font-specification:Berlin Sans FB"
       d="m 199.59533,77.323008 c 0,0.491047 -0.27346,0.736566 -0.82039,0.73656 -0.55492,6e-6 -0.83237,-0.245513 -0.83237,-0.73656 0,-0.219563 0.0858,-0.401207 0.25749,-0.544934 0.15969,-0.135726 0.35132,-0.203594 0.57488,-0.203601 0.22356,7e-6 0.41618,0.06987 0.57787,0.20959 0.16168,0.139734 0.24252,0.319382 0.24252,0.538945 z m -0.0419,1.622826 c -1e-5,0.307404 -0.019,0.771496 -0.0569,1.392277 -0.0379,0.62079 -0.0569,1.086878 -0.0569,1.398266 0,0.291432 0.006,0.727579 0.018,1.30844 0.012,0.580865 0.018,1.015016 0.018,1.302453 0,0.08384 -0.0359,0.125754 -0.10779,0.125754 l -1.16772,0 c -0.0838,0 -0.12575,-0.08184 -0.12575,-0.24552 0,-0.27546 0.007,-0.68965 0.021,-1.242569 0.014,-0.552917 0.021,-0.969103 0.021,-1.248558 0,-0.311388 -0.023,-0.778474 -0.0689,-1.40126 -0.0459,-0.622777 -0.0689,-1.089863 -0.0689,-1.401259 0,-0.06786 0.0419,-0.101795 0.12575,-0.101801 0.0719,6e-6 0.18264,0.01 0.33235,0.02994 0.14971,0.01997 0.26249,0.02995 0.33834,0.02994 0.0759,5e-6 0.18863,-0.01 0.33834,-0.02994 0.1497,-0.01995 0.26248,-0.02993 0.33834,-0.02994 0.0679,6e-6 0.10179,0.03793 0.1018,0.113777 z" />
    <path
       inkscape:connector-curvature="0"
       id="path3518"
       style="font-size:12.26401329px;font-style:normal;font-variant:normal;font-weight:normal;font-stretch:normal;line-height:125%;letter-spacing:0px;word-spacing:0px;fill:#000000;fill-opacity:1;stroke:none;font-family:Berlin Sans FB;-inkscape-font-specification:Berlin Sans FB"
       d="m 202.26012,76.179246 -0.006,0.07785 c -0.0878,1.485102 -0.13175,2.760606 -0.13175,3.826516 0,0.475075 0.008,1.186682 0.024,2.134825 0.016,0.948147 0.0239,1.657758 0.0239,2.128836 0,0.09182 -0.0319,0.137731 -0.0958,0.137731 l -1.14377,0 c -0.0719,0 -0.10779,-0.04591 -0.10779,-0.137731 0,-0.471078 0.004,-1.180689 0.012,-2.128836 0.008,-0.948143 0.012,-1.65975 0.012,-2.134825 0,-0.431152 -0.021,-1.078884 -0.0629,-1.943199 -0.0419,-0.864303 -0.0629,-1.510039 -0.0629,-1.937211 0,-0.07984 0.0419,-0.119758 0.12576,-0.119766 0.0719,8e-6 0.17965,0.006 0.32336,0.01797 0.14372,0.01198 0.25151,0.01797 0.32337,0.01797 0.0759,8e-6 0.18763,-0.006 0.33535,-0.01797 0.14771,-0.01197 0.25749,-0.01796 0.32935,-0.01797 0.0719,8e-6 0.10579,0.03195 0.1018,0.09581 z" />
    <path
       inkscape:connector-curvature="0"
       id="path3520"
       style="font-size:12.26401329px;font-style:normal;font-variant:normal;font-weight:normal;font-stretch:normal;line-height:125%;letter-spacing:0px;word-spacing:0px;fill:#000000;fill-opacity:1;stroke:none;font-family:Berlin Sans FB;-inkscape-font-specification:Berlin Sans FB"
       d="m 208.52387,81.26929 c 0,0.295425 -0.12775,0.493039 -0.38325,0.592841 -0.17167,0.06388 -1.40725,0.181647 -3.70675,0.353309 0.0519,0.351314 0.24552,0.650728 0.58086,0.898243 0.31938,0.23554 0.66271,0.35331 1.02999,0.353309 0.63076,10e-7 1.20963,-0.203601 1.7366,-0.610806 0.0639,-0.0519 0.12775,-0.103795 0.19163,-0.155695 0.0319,2e-6 0.0529,0.004 0.0629,0.01198 0.01,0.008 0.0848,0.146715 0.22456,0.416186 0.13972,0.269474 0.20958,0.414191 0.20959,0.434151 -1e-5,0.02395 -0.0319,0.06987 -0.0958,0.137731 -0.58685,0.622782 -1.33938,0.934173 -2.25758,0.934173 -0.92619,0 -1.66475,-0.276459 -2.21567,-0.829378 -0.55092,-0.552917 -0.82638,-1.290474 -0.82638,-2.212672 0,-0.822388 0.26348,-1.538986 0.79045,-2.149796 0.55492,-0.634752 1.23558,-0.952131 2.04201,-0.952137 0.75053,6e-6 1.3773,0.275467 1.88032,0.826383 0.49104,0.534959 0.73656,1.185685 0.73656,1.952182 z m -1.42521,-0.365285 c -1e-5,-0.331348 -0.13075,-0.624774 -0.39223,-0.880279 -0.2615,-0.255495 -0.55592,-0.383245 -0.88328,-0.38325 -0.36728,5e-6 -0.69364,0.147716 -0.97908,0.443133 -0.28544,0.295426 -0.42817,0.626778 -0.42816,0.994056 -1e-5,0.08384 0.0719,0.125757 0.21557,0.125754 0.59085,3e-6 1.29746,-0.05988 2.11986,-0.179649 0.23154,-0.03193 0.34731,-0.07186 0.34732,-0.119765 z" />
    <path
       inkscape:connector-curvature="0"
       id="path3522"
       style="font-size:12.26401329px;font-style:normal;font-variant:normal;font-weight:normal;font-stretch:normal;line-height:125%;letter-spacing:0px;word-spacing:0px;fill:#000000;fill-opacity:1;stroke:none;font-family:Berlin Sans FB;-inkscape-font-specification:Berlin Sans FB"
       d="m 215.52418,76.808016 c 0,0.04791 -0.0359,0.07586 -0.10779,0.08384 -0.19562,0.01997 -0.38924,0.03793 -0.58086,0.05389 -0.22756,0.03194 -0.40122,0.111789 -0.52098,0.239532 -0.19562,0.211593 -0.29343,0.748542 -0.29343,1.610849 0.13174,6e-6 0.33933,0.004 0.62278,0.01198 0.28344,0.008 0.49703,0.01198 0.64075,0.01198 0.0958,6e-6 0.14371,0.03594 0.14372,0.10779 -1e-5,0.111786 0.004,0.27846 0.012,0.500022 0.008,0.221571 0.012,0.386249 0.012,0.494033 0,0.07586 -0.0399,0.113782 -0.11977,0.113778 -0.13973,4e-6 -0.35131,-0.007 -0.63475,-0.02096 -0.28345,-0.01397 -0.49304,-0.02095 -0.62877,-0.02096 l 0,1.790498 c -1e-5,0.279456 0.01,0.702628 0.0299,1.269517 0.02,0.566892 0.0299,0.990064 0.0299,1.269517 0,0.107789 -0.0399,0.161684 -0.11977,0.161684 l -1.09585,0 c -0.1038,0 -0.1557,-0.06188 -0.1557,-0.185637 l 0,-4.119942 c 0,-0.107785 -0.12176,-0.159683 -0.36529,-0.155696 -0.26348,0.004 -0.40321,-0.006 -0.41918,-0.02994 -0.012,-0.01197 -0.018,-0.08583 -0.018,-0.221567 0,-0.08782 -0.004,-0.218567 -0.012,-0.392233 -0.008,-0.173655 -0.012,-0.304399 -0.012,-0.392233 0,-0.08383 0.2535,-0.139721 0.76051,-0.167672 -0.012,-0.255494 -0.018,-0.463088 -0.018,-0.622782 0,-0.70661 0.12576,-1.223599 0.37727,-1.550966 0.22356,-0.295414 0.55092,-0.526961 0.98208,-0.694641 0.38724,-0.151695 0.78845,-0.227547 1.20364,-0.227555 0.0399,8e-6 0.0679,0.02196 0.0838,0.06587 0.004,0.008 0.0389,0.176663 0.10479,0.50601 0.0659,0.329364 0.0988,0.50003 0.0988,0.511999 z" />
    <path
       inkscape:connector-curvature="0"
       id="path3524"
       style="font-size:12.26401329px;font-style:normal;font-variant:normal;font-weight:normal;font-stretch:normal;line-height:125%;letter-spacing:0px;word-spacing:0px;fill:#000000;fill-opacity:1;stroke:none;font-family:Berlin Sans FB;-inkscape-font-specification:Berlin Sans FB"
       d="m 219.47645,78.861998 c 0,0.439147 -0.03,0.838365 -0.0898,1.197658 -0.012,0.09183 -0.0519,0.137735 -0.11977,0.137731 -0.0838,4e-6 -0.21059,-0.009 -0.38026,-0.02695 -0.16967,-0.01796 -0.29842,-0.02694 -0.38624,-0.02695 -0.50302,4e-6 -0.82439,0.141727 -0.96412,0.425168 -0.0838,0.171668 -0.12575,0.528969 -0.12575,1.071904 l 0,0.658712 c 0,0.223564 0.009,0.5629 0.0269,1.018009 0.018,0.45511 0.0269,0.794446 0.0269,1.018008 -1e-5,0.10779 -0.0459,0.161684 -0.13774,0.161684 -0.12376,0 -0.31139,-0.002 -0.56289,-0.006 -0.25151,-0.004 -0.43915,-0.006 -0.5629,-0.006 -0.0918,0 -0.13773,-0.0499 -0.13773,-0.149708 0,-0.323367 0.005,-0.810414 0.015,-1.461142 0.01,-0.650725 0.015,-1.139768 0.015,-1.46713 0,-0.986068 -0.0918,-1.778517 -0.27546,-2.377351 -0.008,-0.03193 -0.012,-0.05588 -0.012,-0.07186 0,-0.0479 0.0259,-0.08183 0.0778,-0.101801 0.14771,-0.01596 0.3553,-0.03992 0.62278,-0.07186 0.43115,-0.07984 0.63076,-0.11976 0.59883,-0.119766 0.0639,6e-6 0.10579,0.117775 0.12575,0.353309 0.02,0.235544 0.0559,0.353314 0.10779,0.353309 0.008,5e-6 0.018,-0.004 0.0299,-0.01198 0.16368,-0.103791 0.32736,-0.207588 0.49104,-0.311391 0.17965,-0.107783 0.36329,-0.187627 0.55092,-0.239531 0.1557,-0.0479 0.35531,-0.07185 0.59883,-0.07186 0.31139,6e-6 0.46709,0.04192 0.46709,0.125754 z" />
    <path
       inkscape:connector-curvature="0"
       id="path3526"
       style="font-size:12.26401329px;font-style:normal;font-variant:normal;font-weight:normal;font-stretch:normal;line-height:125%;letter-spacing:0px;word-spacing:0px;fill:#000000;fill-opacity:1;stroke:none;font-family:Berlin Sans FB;-inkscape-font-specification:Berlin Sans FB"
       d="m 225.96775,79.0656 c 0,0.01597 -0.006,0.0519 -0.018,0.107789 -0.1557,0.914217 -0.23355,1.702674 -0.23355,2.365374 0,0.03992 0.0499,0.936171 0.14971,2.688741 l 0.006,0.08384 c 0.004,0.115774 -0.0489,0.173661 -0.15869,0.173661 -0.10979,0 -0.27547,0.01297 -0.49703,0.03892 -0.22157,0.02595 -0.38625,0.03892 -0.49403,0.03892 -0.0759,0 -0.13375,-0.139726 -0.17366,-0.41918 -0.0399,-0.279453 -0.0779,-0.419179 -0.11378,-0.41918 -0.024,10e-7 -0.13175,0.07785 -0.32337,0.233543 -0.23554,0.191626 -0.45511,0.337341 -0.65871,0.437145 -0.31539,0.159688 -0.63077,0.239532 -0.94615,0.239532 -0.77449,0 -1.42721,-0.309395 -1.95817,-0.928185 -0.50301,-0.590843 -0.75452,-1.279495 -0.75452,-2.065959 0,-0.886263 0.2535,-1.618829 0.76051,-2.197702 0.53096,-0.602815 1.22959,-0.904225 2.0959,-0.904231 0.6108,6e-6 1.14376,0.211592 1.59887,0.634758 0.0679,0.07985 0.17366,0.195623 0.31738,0.347321 0.012,0.01198 0.024,0.01797 0.0359,0.01797 0.024,5e-6 0.0579,-0.125749 0.1018,-0.377262 0.0439,-0.251503 0.0998,-0.377257 0.16768,-0.377262 0.10778,5e-6 0.30938,0.02995 0.60481,0.08982 0.32736,0.07187 0.49104,0.13574 0.49104,0.191625 z m -1.52701,2.503104 c -1e-5,-0.491036 -0.14572,-0.912212 -0.43715,-1.263528 -0.3074,-0.379254 -0.70063,-0.568883 -1.17969,-0.568888 -0.47906,5e-6 -0.87828,0.187638 -1.19766,0.562899 -0.3074,0.359302 -0.4611,0.782473 -0.46109,1.269517 -1e-5,0.483058 0.15369,0.902238 0.46109,1.257541 0.31938,0.371275 0.7186,0.556912 1.19766,0.556911 0.46708,10e-7 0.85832,-0.189628 1.17371,-0.568888 0.29541,-0.355303 0.44312,-0.77049 0.44313,-1.245564 z" />
    <path
       inkscape:connector-curvature="0"
       id="path3528"
       style="font-size:12.26401329px;font-style:normal;font-variant:normal;font-weight:normal;font-stretch:normal;line-height:125%;letter-spacing:0px;word-spacing:0px;fill:#000000;fill-opacity:1;stroke:none;font-family:Berlin Sans FB;-inkscape-font-specification:Berlin Sans FB"
       d="m 232.22551,84.365235 c 0,0.08783 -0.0399,0.131742 -0.11976,0.131742 -0.13175,0 -0.32836,-0.002 -0.58985,-0.006 -0.26149,-0.004 -0.45811,-0.006 -0.58984,-0.006 -0.0719,0 -0.1078,-0.05789 -0.10779,-0.173661 -1e-5,-0.195617 0.006,-0.493035 0.018,-0.892255 0.012,-0.399217 0.018,-0.698631 0.018,-0.898243 -1e-5,-0.159685 -0.002,-0.398219 -0.006,-0.7156 -0.004,-0.317376 -0.006,-0.55591 -0.006,-0.715601 0,-0.455106 -0.0659,-0.776477 -0.19761,-0.964114 -0.1597,-0.223558 -0.45512,-0.335339 -0.88627,-0.335344 -0.19961,5e-6 -0.47707,0.111786 -0.83237,0.335344 -0.37527,0.235544 -0.5629,0.445133 -0.5629,0.62877 l 0,3.592973 c 0,0.09981 -0.0379,0.149707 -0.11378,0.149707 -0.12775,0 -0.31938,-0.002 -0.57487,-0.006 -0.25551,-0.004 -0.44713,-0.006 -0.57488,-0.006 -0.0838,0 -0.12575,-0.04591 -0.12575,-0.137731 0,-0.315383 0.005,-0.788457 0.015,-1.419224 0.01,-0.630764 0.015,-1.105835 0.015,-1.425213 0,-0.850333 -0.0898,-1.634798 -0.26948,-2.353397 -0.012,-0.03592 -0.018,-0.06187 -0.018,-0.07785 0,-0.03992 0.026,-0.06786 0.0779,-0.08384 0.0279,-0.004 0.25649,-0.04091 0.68566,-0.110783 0.42916,-0.06986 0.65372,-0.104789 0.67368,-0.104795 0.0239,6e-6 0.0399,0.03194 0.0479,0.09581 0.02,0.247521 0.0659,0.497033 0.13774,0.748536 0.20759,-0.163675 0.48105,-0.367277 0.82039,-0.610806 0.41918,-0.255494 0.82438,-0.383244 1.21562,-0.38325 0.75053,6e-6 1.26353,0.21758 1.53899,0.652723 0.2036,0.319381 0.3054,0.836369 0.30541,1.550967 -1e-5,0.123761 -0.003,0.31339 -0.009,0.568887 -0.006,0.255503 -0.009,0.447128 -0.009,0.574876 0,0.267479 0.004,0.666698 0.012,1.197657 0.008,0.530963 0.012,0.930181 0.012,1.197658 z" />
    <path
       inkscape:connector-curvature="0"
       id="path3530"
       style="font-size:12.26401329px;font-style:normal;font-variant:normal;font-weight:normal;font-stretch:normal;line-height:125%;letter-spacing:0px;word-spacing:0px;fill:#000000;fill-opacity:1;stroke:none;font-family:Berlin Sans FB;-inkscape-font-specification:Berlin Sans FB"
       d="m 237.5491,79.053624 c 0,0.08783 -0.0459,0.28345 -0.13773,0.586852 -0.0918,0.303411 -0.1557,0.455114 -0.19162,0.45511 -0.17966,-0.07984 -0.3603,-0.159683 -0.54194,-0.239532 -0.18165,-0.07984 -0.38026,-0.119761 -0.59584,-0.119766 -0.49104,5e-6 -0.90024,0.18165 -1.2276,0.544935 -0.32736,0.363293 -0.49104,0.792453 -0.49104,1.287481 0,0.48705 0.16368,0.908226 0.49104,1.263529 0.33534,0.367283 0.74454,0.550924 1.2276,0.550923 0.26748,10e-7 0.53096,-0.06587 0.79046,-0.197614 0.25948,-0.131741 0.37326,-0.197612 0.34133,-0.197613 0.0519,1e-6 0.10978,0.167673 0.17366,0.503016 0.0599,0.303407 0.0898,0.512997 0.0898,0.62877 0,0.123758 -0.23354,0.24552 -0.70063,0.365286 -0.39123,0.0998 -0.68067,0.149707 -0.8683,0.149707 -0.82239,0 -1.51703,-0.307399 -2.08392,-0.922197 -0.55492,-0.598827 -0.83237,-1.313429 -0.83237,-2.143807 0,-0.84634 0.27146,-1.564934 0.8144,-2.155783 0.55891,-0.606808 1.25554,-0.910214 2.08992,-0.91022 0.5589,6e-6 1.0699,0.141729 1.533,0.425169 0.0798,0.04791 0.11976,0.08983 0.11976,0.125754 z" />
    <path
       inkscape:connector-curvature="0"
       id="path3532"
       style="font-size:12.26401329px;font-style:normal;font-variant:normal;font-weight:normal;font-stretch:normal;line-height:125%;letter-spacing:0px;word-spacing:0px;fill:#000000;fill-opacity:1;stroke:none;font-family:Berlin Sans FB;-inkscape-font-specification:Berlin Sans FB"
       d="m 243.37571,81.26929 c -1e-5,0.295425 -0.12776,0.493039 -0.38325,0.592841 -0.17167,0.06388 -1.40726,0.181647 -3.70675,0.353309 0.0519,0.351314 0.24551,0.650728 0.58086,0.898243 0.31937,0.23554 0.6627,0.35331 1.02999,0.353309 0.63076,10e-7 1.20963,-0.203601 1.7366,-0.610806 0.0639,-0.0519 0.12774,-0.103795 0.19162,-0.155695 0.0319,2e-6 0.0529,0.004 0.0629,0.01198 0.01,0.008 0.0848,0.146715 0.22456,0.416186 0.13972,0.269474 0.20959,0.414191 0.20959,0.434151 0,0.02395 -0.0319,0.06987 -0.0958,0.137731 -0.58686,0.622782 -1.33939,0.934173 -2.25759,0.934173 -0.92619,0 -1.66474,-0.276459 -2.21566,-0.829378 -0.55092,-0.552917 -0.82639,-1.290474 -0.82639,-2.212672 0,-0.822388 0.26349,-1.538986 0.79046,-2.149796 0.55491,-0.634752 1.23558,-0.952131 2.042,-0.952137 0.75053,6e-6 1.37731,0.275467 1.88033,0.826383 0.49103,0.534959 0.73655,1.185685 0.73656,1.952182 z m -1.42522,-0.365285 c 0,-0.331348 -0.13074,-0.624774 -0.39223,-0.880279 -0.26149,-0.255495 -0.55591,-0.383245 -0.88327,-0.38325 -0.36729,5e-6 -0.69365,0.147716 -0.97909,0.443133 -0.28544,0.295426 -0.42816,0.626778 -0.42816,0.994056 0,0.08384 0.0719,0.125757 0.21558,0.125754 0.59084,3e-6 1.29746,-0.05988 2.11985,-0.179649 0.23155,-0.03193 0.34732,-0.07186 0.34732,-0.119765 z" />
    <g
       transform="scale(1.0435308,0.95828508)"
       style="font-size:8.58763981px;font-style:normal;font-variant:normal;font-weight:normal;font-stretch:normal;line-height:125%;letter-spacing:0px;word-spacing:0px;fill:#000000;fill-opacity:1;stroke:none;font-family:Arial Narrow;-inkscape-font-specification:Arial Narrow"
       id="text3486-1">
      <path
         d="m 191.03706,74.379333 c 0,0.01118 -0.004,0.03634 -0.0126,0.07548 -0.10902,0.640162 -0.16353,1.192264 -0.16353,1.656308 0,0.02796 0.0349,0.655535 0.10483,1.882739 l 0.004,0.0587 c 0.003,0.08107 -0.0342,0.121603 -0.11112,0.121603 -0.0769,0 -0.19289,0.0091 -0.34803,0.02726 -0.15515,0.01817 -0.27046,0.02725 -0.34594,0.02725 -0.0531,0 -0.0936,-0.09784 -0.1216,-0.293523 -0.028,-0.195681 -0.0545,-0.293522 -0.0797,-0.293522 -0.0168,0 -0.0922,0.05451 -0.22643,0.163534 -0.16494,0.134182 -0.31869,0.236216 -0.46125,0.306102 -0.22085,0.111818 -0.44169,0.167727 -0.66253,0.167727 -0.54232,0 -0.99937,-0.216647 -1.37117,-0.649943 -0.35223,-0.413727 -0.52834,-0.895942 -0.52834,-1.446648 0,-0.620589 0.17751,-1.133554 0.53254,-1.538899 0.37179,-0.42211 0.86099,-0.633166 1.46761,-0.63317 0.4277,4e-6 0.8009,0.148163 1.11958,0.444477 0.0475,0.05591 0.1216,0.136981 0.22224,0.243205 0.008,0.0084 0.0168,0.01258 0.0252,0.01258 0.0168,4e-6 0.0405,-0.08805 0.0713,-0.26417 0.0308,-0.17611 0.0699,-0.264167 0.11741,-0.264171 0.0755,4e-6 0.21664,0.02097 0.42351,0.0629 0.22923,0.05032 0.34384,0.09505 0.34384,0.134182 z m -1.06926,1.75275 c 0,-0.343838 -0.10204,-0.638758 -0.3061,-0.884761 -0.21525,-0.265565 -0.49061,-0.398349 -0.82606,-0.398353 -0.33545,4e-6 -0.615,0.13139 -0.83863,0.39416 -0.21526,0.251593 -0.32288,0.547911 -0.32288,0.888954 0,0.338252 0.10762,0.631775 0.32288,0.880569 0.22363,0.259978 0.50318,0.389967 0.83863,0.389966 0.32707,10e-7 0.60102,-0.132783 0.82187,-0.398352 0.20686,-0.248795 0.31029,-0.539522 0.31029,-0.872183 z"
         style="font-family:Berlin Sans FB;-inkscape-font-specification:Berlin Sans FB"
         id="path3535" />
      <path
         d="m 193.68716,76.882663 c -1e-5,0.416524 -0.16634,0.750581 -0.49899,1.002171 -0.30191,0.229228 -0.66952,0.343841 -1.10281,0.343841 -0.16773,0 -0.26277,-0.0042 -0.28514,-0.01258 -0.0475,-0.02236 -0.0713,-0.09085 -0.0713,-0.205466 0,-0.0615 -0.008,-0.15375 -0.0231,-0.27675 -0.0154,-0.123 -0.0231,-0.213852 -0.0231,-0.272557 0,-0.03634 0.0252,-0.0601 0.0755,-0.07128 0.0363,-0.0084 0.0881,-0.0084 0.15515,0 0.0867,0.0084 0.12859,0.01258 0.12579,0.01258 0.52834,10e-7 0.79251,-0.162135 0.79252,-0.486409 -1e-5,-0.153749 -0.11602,-0.294919 -0.34804,-0.423512 -0.37739,-0.206862 -0.59403,-0.334055 -0.64994,-0.381579 -0.23202,-0.198476 -0.34804,-0.458453 -0.34804,-0.779933 0,-0.419315 0.15795,-0.746383 0.47383,-0.981205 0.28514,-0.209655 0.64575,-0.314484 1.08185,-0.314488 0.0391,4e-6 0.0678,0.01817 0.086,0.05451 0.0182,0.03634 0.0531,0.149561 0.10483,0.339648 0.0517,0.190094 0.0776,0.304708 0.0776,0.343841 0,0.03075 -0.0266,0.05032 -0.0797,0.0587 -0.17891,0.02516 -0.35922,0.04892 -0.54092,0.07128 -0.21525,0.05871 -0.32288,0.176116 -0.32288,0.352227 0,0.125798 0.11322,0.252992 0.33965,0.38158 0.33545,0.187298 0.54791,0.322877 0.63736,0.406739 0.22923,0.218047 0.34384,0.497592 0.34385,0.838636 z"
         style="font-family:Berlin Sans FB;-inkscape-font-specification:Berlin Sans FB"
         id="path3537" />
      <path
         d="m 196.25338,76.882663 c 0,0.416524 -0.16633,0.750581 -0.49898,1.002171 -0.30192,0.229228 -0.66952,0.343841 -1.10281,0.343841 -0.16773,0 -0.26278,-0.0042 -0.28514,-0.01258 -0.0475,-0.02236 -0.0713,-0.09085 -0.0713,-0.205466 0,-0.0615 -0.008,-0.15375 -0.0231,-0.27675 -0.0154,-0.123 -0.0231,-0.213852 -0.0231,-0.272557 0,-0.03634 0.0252,-0.0601 0.0755,-0.07128 0.0363,-0.0084 0.0881,-0.0084 0.15515,0 0.0867,0.0084 0.12859,0.01258 0.12579,0.01258 0.52834,10e-7 0.79251,-0.162135 0.79251,-0.486409 0,-0.153749 -0.11601,-0.294919 -0.34803,-0.423512 -0.37739,-0.206862 -0.59403,-0.334055 -0.64994,-0.381579 -0.23203,-0.198476 -0.34804,-0.458453 -0.34804,-0.779933 0,-0.419315 0.15795,-0.746383 0.47383,-0.981205 0.28514,-0.209655 0.64575,-0.314484 1.08184,-0.314488 0.0391,4e-6 0.0678,0.01817 0.086,0.05451 0.0182,0.03634 0.0531,0.149561 0.10483,0.339648 0.0517,0.190094 0.0776,0.304708 0.0776,0.343841 0,0.03075 -0.0266,0.05032 -0.0797,0.0587 -0.17891,0.02516 -0.35922,0.04892 -0.54092,0.07128 -0.21526,0.05871 -0.32288,0.176116 -0.32288,0.352227 0,0.125798 0.11322,0.252992 0.33965,0.38158 0.33545,0.187298 0.54791,0.322877 0.63736,0.406739 0.22923,0.218047 0.34384,0.497592 0.34384,0.838636 z"
         style="font-family:Berlin Sans FB;-inkscape-font-specification:Berlin Sans FB"
         id="path3539" />
      <path
         d="m 200.65623,76.132083 c -1e-5,0.584252 -0.1915,1.08324 -0.57447,1.496967 -0.39137,0.427705 -0.87638,0.641557 -1.45503,0.641557 -0.58146,0 -1.06787,-0.212454 -1.45923,-0.637364 -0.38298,-0.410931 -0.57447,-0.908521 -0.57447,-1.492773 0,-0.584248 0.19149,-1.081838 0.57447,-1.492774 0.39416,-0.419314 0.88056,-0.628973 1.45923,-0.628977 0.57586,4e-6 1.05947,0.209663 1.45084,0.628977 0.38577,0.40814 0.57865,0.902935 0.57866,1.484387 z m -0.88477,0.0084 c 0,-0.341043 -0.10483,-0.63177 -0.31448,-0.872182 -0.21805,-0.254384 -0.4948,-0.381577 -0.83025,-0.38158 -0.33546,3e-6 -0.61361,0.125799 -0.83445,0.377386 -0.20966,0.243208 -0.31449,0.535333 -0.31449,0.876376 0,0.335456 0.10623,0.626183 0.31869,0.872182 0.22363,0.259978 0.50038,0.389967 0.83025,0.389966 0.33265,10e-7 0.6094,-0.129988 0.83025,-0.389966 0.20965,-0.245999 0.31448,-0.536726 0.31448,-0.872182 z"
         style="font-family:Berlin Sans FB;-inkscape-font-specification:Berlin Sans FB"
         id="path3541" />
      <path
         d="m 204.1785,74.370946 c 0,0.0615 -0.0322,0.198481 -0.0964,0.410932 -0.0643,0.212458 -0.10903,0.318685 -0.13418,0.318682 -0.1258,-0.05591 -0.2523,-0.111815 -0.37949,-0.167727 -0.12719,-0.05591 -0.26627,-0.08386 -0.41722,-0.08386 -0.34384,4e-6 -0.63038,0.127197 -0.8596,0.38158 -0.22923,0.254389 -0.34384,0.5549 -0.34384,0.901534 0,0.341048 0.11461,0.635968 0.34384,0.884762 0.23481,0.257183 0.52135,0.385774 0.8596,0.385773 0.18729,10e-7 0.37179,-0.04612 0.5535,-0.138375 0.1817,-0.09225 0.26137,-0.138374 0.23901,-0.138375 0.0363,10e-7 0.0769,0.11741 0.1216,0.352227 0.0419,0.212455 0.0629,0.359217 0.0629,0.440285 0,0.08666 -0.16354,0.17192 -0.4906,0.255784 -0.27396,0.06989 -0.47663,0.104829 -0.60801,0.104829 -0.57587,0 -1.06228,-0.21525 -1.45923,-0.64575 -0.38857,-0.419317 -0.58285,-0.919703 -0.58285,-1.50116 0,-0.592634 0.19009,-1.095815 0.57027,-1.509546 0.39136,-0.424905 0.87917,-0.637359 1.46342,-0.637363 0.39136,4e-6 0.74918,0.09924 1.07346,0.297716 0.0559,0.03355 0.0839,0.0629 0.0839,0.08806 z"
         style="font-family:Berlin Sans FB;-inkscape-font-specification:Berlin Sans FB"
         id="path3543" />
      <path
         d="m 205.79707,73.159116 c 0,0.343846 -0.19149,0.515766 -0.57447,0.515762 -0.38857,4e-6 -0.58285,-0.171916 -0.58285,-0.515762 0,-0.153745 0.0601,-0.280938 0.18031,-0.381579 0.11181,-0.09504 0.246,-0.142563 0.40254,-0.142569 0.15655,6e-6 0.29143,0.04893 0.40465,0.146762 0.11321,0.09785 0.16982,0.223641 0.16982,0.377386 z m -0.0293,1.136353 c 0,0.215254 -0.0133,0.540225 -0.0398,0.974915 -0.0266,0.434696 -0.0398,0.761065 -0.0398,0.979109 -1e-5,0.20407 0.004,0.509473 0.0126,0.91621 0.008,0.40674 0.0126,0.710745 0.0126,0.912018 -1e-5,0.0587 -0.0252,0.08806 -0.0755,0.08806 l -0.81767,0 c -0.0587,0 -0.0881,-0.05731 -0.0881,-0.17192 0,-0.192886 0.005,-0.482914 0.0147,-0.870086 0.01,-0.387169 0.0147,-0.678595 0.0147,-0.874278 0,-0.218044 -0.0161,-0.545112 -0.0482,-0.981205 -0.0322,-0.436088 -0.0482,-0.763156 -0.0482,-0.981205 0,-0.04752 0.0294,-0.07128 0.0881,-0.07128 0.0503,4e-6 0.12789,0.007 0.23272,0.02097 0.10483,0.01398 0.1838,0.02097 0.23691,0.02096 0.0531,4e-6 0.13209,-0.007 0.23692,-0.02096 0.10483,-0.01397 0.1838,-0.02096 0.23691,-0.02097 0.0475,4e-6 0.0713,0.02656 0.0713,0.07967 z"
         style="font-family:Berlin Sans FB;-inkscape-font-specification:Berlin Sans FB"
         id="path3545" />
      <path
         d="m 210.67793,74.379333 c 0,0.01118 -0.004,0.03634 -0.0126,0.07548 -0.10903,0.640162 -0.16354,1.192264 -0.16354,1.656308 0,0.02796 0.0349,0.655535 0.10483,1.882739 l 0.004,0.0587 c 0.003,0.08107 -0.0342,0.121603 -0.11112,0.121603 -0.0769,0 -0.19289,0.0091 -0.34803,0.02726 -0.15515,0.01817 -0.27046,0.02725 -0.34594,0.02725 -0.0531,0 -0.0936,-0.09784 -0.1216,-0.293523 -0.028,-0.195681 -0.0545,-0.293522 -0.0797,-0.293522 -0.0168,0 -0.0923,0.05451 -0.22643,0.163534 -0.16494,0.134182 -0.31869,0.236216 -0.46125,0.306102 -0.22085,0.111818 -0.44169,0.167727 -0.66253,0.167727 -0.54232,0 -0.99937,-0.216647 -1.37117,-0.649943 -0.35222,-0.413727 -0.52834,-0.895942 -0.52834,-1.446648 0,-0.620589 0.17751,-1.133554 0.53254,-1.538899 0.37179,-0.42211 0.861,-0.633166 1.46761,-0.63317 0.4277,4e-6 0.8009,0.148163 1.11958,0.444477 0.0475,0.05591 0.1216,0.136981 0.22224,0.243205 0.008,0.0084 0.0168,0.01258 0.0252,0.01258 0.0168,4e-6 0.0405,-0.08805 0.0713,-0.26417 0.0307,-0.17611 0.0699,-0.264167 0.11741,-0.264171 0.0755,4e-6 0.21665,0.02097 0.42351,0.0629 0.22923,0.05032 0.34384,0.09505 0.34384,0.134182 z m -1.06926,1.75275 c 0,-0.343838 -0.10203,-0.638758 -0.3061,-0.884761 -0.21525,-0.265565 -0.4906,-0.398349 -0.82606,-0.398353 -0.33545,4e-6 -0.615,0.13139 -0.83863,0.39416 -0.21525,0.251593 -0.32288,0.547911 -0.32288,0.888954 0,0.338252 0.10763,0.631775 0.32288,0.880569 0.22363,0.259978 0.50318,0.389967 0.83863,0.389966 0.32707,10e-7 0.60102,-0.132783 0.82187,-0.398352 0.20686,-0.248795 0.31029,-0.539522 0.31029,-0.872183 z"
         style="font-family:Berlin Sans FB;-inkscape-font-specification:Berlin Sans FB"
         id="path3547" />
      <path
         d="m 213.70122,77.402618 c 0,0.0615 -0.006,0.145364 -0.0168,0.251591 -0.014,0.131387 -0.0224,0.216648 -0.0252,0.255784 -0.003,0.05032 -0.007,0.08107 -0.0126,0.09225 -0.0112,0.01957 -0.0377,0.03914 -0.0797,0.0587 -0.22923,0.109023 -0.58985,0.163534 -1.08184,0.163534 -0.65414,0 -0.98121,-0.296318 -0.98121,-0.888955 0,-0.237613 0.006,-0.594732 0.0168,-1.071358 0.0112,-0.476623 0.0168,-0.833742 0.0168,-1.071359 0,-0.11461 -0.0573,-0.17611 -0.17192,-0.1845 -0.10344,3e-6 -0.20547,-0.0014 -0.30611,-0.0042 -0.0587,-0.01397 -0.088,-0.128588 -0.088,-0.343841 0,-0.08106 0.006,-0.166326 0.0168,-0.255784 0.008,-0.06709 0.0531,-0.107621 0.13418,-0.121602 0.0699,3e-6 0.13838,-0.0014 0.20547,-0.0042 0.12859,-0.0056 0.19288,-0.06289 0.19288,-0.17192 0,-0.111814 -0.003,-0.282337 -0.0105,-0.511569 -0.007,-0.229222 -0.0105,-0.401142 -0.0105,-0.515761 0,-0.204063 0.0391,-0.306097 0.11741,-0.306103 0.0252,6e-6 0.28793,0.04333 0.78832,0.129989 0.0643,0.0084 0.0964,0.03914 0.0964,0.09225 0,0.123005 -0.009,0.307505 -0.0273,0.5535 -0.0182,0.246005 -0.0272,0.430505 -0.0272,0.553501 0,0.08107 0.0377,0.121606 0.11321,0.121602 l 1.00637,0 c 0.0475,4e-6 0.0713,0.01678 0.0713,0.05032 0,0.03355 -0.005,0.08736 -0.0147,0.161438 -0.01,0.07408 -0.0147,0.129293 -0.0147,0.16563 0,0.04194 0.001,0.106231 0.004,0.192887 0.003,0.08666 0.004,0.150958 0.004,0.192886 -1e-5,0.05312 -0.0391,0.07967 -0.11741,0.07967 -0.11182,3e-6 -0.28095,-0.0077 -0.50738,-0.02306 -0.22643,-0.01537 -0.39556,-0.02306 -0.50737,-0.02306 -0.0224,3e-6 -0.0391,0.07967 -0.0503,0.239011 -0.014,0.19848 -0.021,0.476628 -0.021,0.834444 l 0,0.624784 c 0,0.240411 0.0224,0.408138 0.0671,0.503182 0.0671,0.145365 0.20547,0.218046 0.41513,0.218046 0.0867,0 0.21385,-0.01887 0.38158,-0.05661 0.16772,-0.03774 0.29212,-0.05661 0.37319,-0.05661 0.0335,10e-7 0.0503,0.02516 0.0503,0.07548 z"
         style="font-family:Berlin Sans FB;-inkscape-font-specification:Berlin Sans FB"
         id="path3549" />
      <path
         d="m 215.39107,73.159116 c 0,0.343846 -0.19149,0.515766 -0.57446,0.515762 -0.38857,4e-6 -0.58286,-0.171916 -0.58286,-0.515762 0,-0.153745 0.0601,-0.280938 0.18031,-0.381579 0.11182,-0.09504 0.246,-0.142563 0.40255,-0.142569 0.15654,6e-6 0.29142,0.04893 0.40464,0.146762 0.11321,0.09785 0.16982,0.223641 0.16982,0.377386 z m -0.0294,1.136353 c 0,0.215254 -0.0133,0.540225 -0.0398,0.974915 -0.0266,0.434696 -0.0398,0.761065 -0.0398,0.979109 0,0.20407 0.004,0.509473 0.0126,0.91621 0.008,0.40674 0.0126,0.710745 0.0126,0.912018 0,0.0587 -0.0252,0.08806 -0.0755,0.08806 l -0.81767,0 c -0.0587,0 -0.0881,-0.05731 -0.0881,-0.17192 0,-0.192886 0.005,-0.482914 0.0147,-0.870086 0.01,-0.387169 0.0147,-0.678595 0.0147,-0.874278 0,-0.218044 -0.0161,-0.545112 -0.0482,-0.981205 -0.0321,-0.436088 -0.0482,-0.763156 -0.0482,-0.981205 0,-0.04752 0.0294,-0.07128 0.0881,-0.07128 0.0503,4e-6 0.12789,0.007 0.23272,0.02097 0.10483,0.01398 0.1838,0.02097 0.23692,0.02096 0.0531,4e-6 0.13208,-0.007 0.23691,-0.02096 0.10483,-0.01397 0.1838,-0.02096 0.23692,-0.02097 0.0475,4e-6 0.0713,0.02656 0.0713,0.07967 z"
         style="font-family:Berlin Sans FB;-inkscape-font-specification:Berlin Sans FB"
         id="path3551" />
      <path
         d="m 219.99519,76.132083 c -1e-5,0.584252 -0.19149,1.08324 -0.57447,1.496967 -0.39136,0.427705 -0.87638,0.641557 -1.45503,0.641557 -0.58146,0 -1.06787,-0.212454 -1.45923,-0.637364 -0.38298,-0.410931 -0.57447,-0.908521 -0.57447,-1.492773 0,-0.584248 0.19149,-1.081838 0.57447,-1.492774 0.39416,-0.419314 0.88057,-0.628973 1.45923,-0.628977 0.57586,4e-6 1.05947,0.209663 1.45084,0.628977 0.38577,0.40814 0.57865,0.902935 0.57866,1.484387 z m -0.88476,0.0084 c -1e-5,-0.341043 -0.10484,-0.63177 -0.31449,-0.872182 -0.21805,-0.254384 -0.4948,-0.381577 -0.83025,-0.38158 -0.33546,3e-6 -0.61361,0.125799 -0.83445,0.377386 -0.20966,0.243208 -0.31449,0.535333 -0.31448,0.876376 -10e-6,0.335456 0.10622,0.626183 0.31868,0.872182 0.22363,0.259978 0.50038,0.389967 0.83025,0.389966 0.33265,10e-7 0.6094,-0.129988 0.83025,-0.389966 0.20965,-0.245999 0.31448,-0.536726 0.31449,-0.872182 z"
         style="font-family:Berlin Sans FB;-inkscape-font-specification:Berlin Sans FB"
         id="path3553" />
      <path
         d="m 224.28482,78.0903 c -1e-5,0.0615 -0.028,0.09225 -0.0839,0.09225 -0.0923,0 -0.22993,-0.0014 -0.41302,-0.0042 -0.18311,-0.0028 -0.32079,-0.0042 -0.41303,-0.0042 -0.0503,0 -0.0755,-0.04053 -0.0755,-0.121603 0,-0.136977 0.004,-0.345238 0.0126,-0.624784 0.008,-0.279544 0.0126,-0.489203 0.0126,-0.628977 0,-0.111817 -0.001,-0.278845 -0.004,-0.501086 -0.003,-0.222236 -0.004,-0.389265 -0.004,-0.501085 0,-0.318679 -0.0461,-0.543713 -0.13837,-0.675103 -0.11182,-0.156542 -0.31869,-0.234815 -0.62059,-0.234818 -0.13978,3e-6 -0.33406,0.07828 -0.58286,0.234818 -0.26277,0.164935 -0.39416,0.311696 -0.39416,0.440284 l 0,2.515911 c 0,0.06989 -0.0265,0.104829 -0.0797,0.104829 -0.0894,0 -0.22363,-0.0014 -0.40254,-0.0042 -0.17891,-0.0028 -0.31309,-0.0042 -0.40255,-0.0042 -0.0587,0 -0.088,-0.03215 -0.088,-0.09644 0,-0.220841 0.003,-0.552102 0.0105,-0.993785 0.007,-0.44168 0.0105,-0.774339 0.0105,-0.997978 0,-0.595429 -0.0629,-1.144735 -0.18869,-1.647921 -0.008,-0.02515 -0.0126,-0.04332 -0.0126,-0.05451 0,-0.02795 0.0182,-0.04752 0.0545,-0.05871 0.0196,-0.0028 0.17961,-0.02865 0.48012,-0.07757 0.30051,-0.04892 0.45775,-0.07338 0.47173,-0.07338 0.0168,4e-6 0.028,0.02237 0.0336,0.06709 0.014,0.173322 0.0461,0.348038 0.0964,0.524148 0.14536,-0.114611 0.33685,-0.257179 0.57447,-0.427705 0.29352,-0.178905 0.57726,-0.26836 0.85121,-0.268364 0.52555,4e-6 0.88476,0.152356 1.07765,0.457057 0.14257,0.22364 0.21385,0.585651 0.21385,1.086035 0,0.08666 -0.002,0.219445 -0.006,0.398352 -0.004,0.178911 -0.006,0.313093 -0.006,0.402546 0,0.187297 0.003,0.466842 0.008,0.838636 0.006,0.371797 0.008,0.651342 0.008,0.838637 z"
         style="font-family:Berlin Sans FB;-inkscape-font-specification:Berlin Sans FB"
         id="path3555" />
    </g>
  </g>
</svg>
